<svg width="21" height="24" viewBox="0 0 21 24" fill="none" xmlns="http://www.w3.org/2000/svg">
<path d="M9.11541 12.4952L9.32867 13.774C9.46607 14.5987 9.85781 15.36 10.4491 15.9512L11.5455 17.0475L11.2868 17.5655C11.1417 17.855 11.1985 18.2046 11.4272 18.4332L12.3284 19.3343C12.4687 19.4747 12.5483 19.6665 12.5483 19.8657V20.5937C12.5483 20.8784 12.7087 21.1385 12.9641 21.2661L13.0664 21.3169C13.3559 21.462 13.7055 21.4052 13.9342 21.1766L14.4175 20.6933C15.1628 19.9479 15.6915 19.0139 15.9471 17.9913C15.9803 17.8588 15.9755 17.7195 15.9332 17.5896C15.8908 17.4596 15.8127 17.3442 15.7078 17.2567L14.8186 16.516C14.6508 16.3756 14.4295 16.3162 14.2136 16.3522L13.4314 16.4826C13.3134 16.5022 13.1924 16.4935 13.0784 16.4569C12.9645 16.4204 12.8609 16.3573 12.7763 16.2727L12.5791 16.0755C12.5092 16.0057 12.4538 15.9228 12.416 15.8315C12.3782 15.7403 12.3588 15.6425 12.3588 15.5437C12.3588 15.445 12.3782 15.3472 12.416 15.2559C12.4538 15.1647 12.5092 15.0818 12.5791 15.012L12.666 14.9237C12.7777 14.812 12.9218 14.7383 13.0778 14.7131C13.2338 14.6879 13.3938 14.7125 13.5351 14.7834L13.9382 14.9852C14.0398 15.0362 14.1548 15.0539 14.267 15.0358C14.3793 15.0177 14.4829 14.9647 14.5633 14.8843C14.6437 14.804 14.6967 14.7003 14.7148 14.5881C14.7329 14.4759 14.7152 14.3609 14.6642 14.2593L14.5539 14.0394L15.3936 13.4798C15.829 13.1894 16.1811 12.7903 16.4151 12.3221L16.5127 12.1269M9.11541 12.4952C8.16752 13.3143 7.49896 14.4088 7.20301 15.626C6.90706 16.8432 6.99848 18.1224 7.46452 19.2852C7.93057 20.448 8.74798 21.4363 9.80272 22.1123C10.8575 22.7883 12.0969 23.1182 13.3482 23.056C14.5994 22.9938 15.8 22.5426 16.7825 21.7654C17.765 20.9882 18.4804 19.9237 18.8288 18.7204C19.1773 17.5171 19.1414 16.2351 18.7262 15.0533C18.3109 13.8714 17.5371 12.8479 16.5127 12.1269M9.11541 12.4952C10.2075 11.5489 11.6047 11.029 13.0497 11.0313C14.3393 11.0313 15.5339 11.4363 16.5127 12.1269" stroke="black" stroke-linecap="round" stroke-linejoin="round"/>
<path fill-rule="evenodd" clip-rule="evenodd" d="M14.3753 12.949L14.3965 12.9628L14.405 12.9684C14.4386 12.9891 14.4762 13 14.5145 13C14.5527 13 14.5904 12.9891 14.624 12.9684L14.6325 12.9632L14.654 12.949C14.7726 12.8688 14.8882 12.7833 15.0007 12.6925C15.2919 12.4579 15.5641 12.1939 15.8137 11.9036C16.4028 11.2157 17.0146 10.182 17.0146 8.85207C17.0146 8.09565 16.7513 7.37022 16.2824 6.83535C15.8136 6.30048 15.1777 6 14.5146 6C13.8516 6 13.2157 6.30048 12.7469 6.83535C12.278 7.37022 12.0146 8.09565 12.0146 8.85207C12.0146 10.1816 12.6268 11.2157 13.2156 11.9036C13.4651 12.1939 13.7372 12.4579 14.0283 12.6925C14.1409 12.7833 14.2566 12.8688 14.3753 12.949ZM14.5146 9.88918C14.7558 9.88918 14.987 9.77991 15.1575 9.58542C15.328 9.39092 15.4237 9.12713 15.4237 8.85207C15.4237 8.57701 15.328 8.31321 15.1575 8.11871C14.987 7.92422 14.7558 7.81495 14.5146 7.81495C14.2735 7.81495 14.0423 7.92422 13.8718 8.11871C13.7013 8.31321 13.6056 8.57701 13.6056 8.85207C13.6056 9.12713 13.7013 9.39092 13.8718 9.58542C14.0423 9.77991 14.2735 9.88918 14.5146 9.88918Z" fill="black"/>
<path fill-rule="evenodd" clip-rule="evenodd" d="M5.95233 1.96734C6.59581 1.35019 7.47284 1 8.39149 1C9.31015 1 10.1872 1.35019 10.8307 1.96734C11.4734 2.5838 11.8304 3.41534 11.8304 4.27775C11.8304 5.14016 11.4734 5.9717 10.8307 6.58816C10.1872 7.20531 9.31015 7.5555 8.39149 7.5555C7.47284 7.5555 6.59581 7.20531 5.95233 6.58816C5.30956 5.9717 4.95255 5.14016 4.95255 4.27775C4.95255 3.41534 5.30956 2.5838 5.95233 1.96734ZM8.39149 0C7.2208 0 6.09406 0.44583 5.26015 1.24562C4.42552 2.04609 3.95255 3.13632 3.95255 4.27775C3.95255 5.41918 4.42552 6.50942 5.26015 7.30988C6.09406 8.10967 7.2208 8.5555 8.39149 8.5555C9.56219 8.5555 10.6889 8.10967 11.5228 7.30988C12.3575 6.50942 12.8304 5.41918 12.8304 4.27775C12.8304 3.13632 12.3575 2.04609 11.5228 1.24562C10.6889 0.44583 9.56219 0 8.39149 0ZM3.20979 13.6013C4.58844 12.3005 6.44913 11.5681 8.39149 11.5681C8.9907 11.5681 9.58213 11.6378 10.154 11.7724C10.6153 11.5187 11.1135 11.3238 11.6384 11.1976C10.6193 10.7857 9.51644 10.5681 8.39149 10.5681C6.19972 10.5681 4.09191 11.3941 2.52351 12.8739C0.954435 14.3544 0.0508245 16.3715 0.0147214 18.4917C0.0112937 18.693 0.128925 18.8767 0.31318 18.9578C2.72665 20.0204 5.40541 20.621 8.22564 20.6436C7.98979 20.3279 7.78422 19.9882 7.61324 19.6288C5.279 19.5359 3.05794 19.0266 1.02841 18.1767C1.14271 16.4539 1.91475 14.8232 3.20979 13.6013Z" fill="black"/>
</svg>
