<svg xmlns="http://www.w3.org/2000/svg" version="1.1" viewBox="-5.0 -10.0 110.0 135.0">
 <path d="m50 32.68c-9.5508 0-17.32 7.7695-17.32 17.32s7.7695 17.32 17.32 17.32 17.32-7.7695 17.32-17.32-7.7695-17.32-17.32-17.32zm0 32.73c-8.5 0-15.41-6.9102-15.41-15.41s6.9102-15.41 15.41-15.41 15.41 6.9102 15.41 15.41-6.9102 15.41-15.41 15.41zm9.0508-23.988c-0.87891-0.14062-1.7617 0.078125-2.4688 0.60156l-11.57 8.4609-2.0781-3.3906c-0.96094-1.5703-3.0117-2.0586-4.5703-1.1094-1.5703 0.96094-2.0586 3.0117-1.1094 4.5703l3.9688 6.4688c0.48828 0.80078 1.2617 1.3398 2.1797 1.5312 0.21875 0.039062 0.44141 0.070312 0.66016 0.070312 0.69922 0 1.3906-0.21875 1.9805-0.64062l14.488-10.59c0.71875-0.53125 1.1914-1.3008 1.3203-2.1797 0.14063-0.87891-0.078124-1.7617-0.60937-2.4688-0.53125-0.72656-1.3125-1.1953-2.1914-1.3242zm0.89062 3.5c-0.058594 0.37109-0.26172 0.69922-0.55859 0.92188l-14.484 10.586c-0.32813 0.23828-0.73047 0.32812-1.1289 0.25-0.39062-0.078126-0.71094-0.30859-0.92188-0.64844l-3.9688-6.4688c-0.41016-0.66016-0.19141-1.5312 0.46875-1.9414s1.5312-0.19141 1.9414 0.46875l2.6211 4.2695c0.14062 0.23047 0.37109 0.39062 0.62891 0.44141 0.26172 0.050781 0.53125-0.011719 0.75-0.17188l12.41-9.0703c0.30078-0.21875 0.67969-0.30859 1.0508-0.26172 0.37109 0.058594 0.69922 0.26172 0.92188 0.55859 0.23828 0.32422 0.32812 0.69531 0.26953 1.0664zm25.418 1.0977c-0.25-2.2695-2.0195-3.9883-4.2891-4.1797l-5.0117-0.42969c-0.92188-0.078125-1.6797-0.62891-2.0391-1.4805-0.35938-0.85156-0.21094-1.7812 0.37891-2.4883l3.2109-3.8711c1.4609-1.7617 1.4688-4.2188 0.03125-5.9883-1.6211-1.9883-3.4492-3.8086-5.4609-5.4102-1.7812-1.4219-4.2383-1.3906-5.9883 0.078125l-3.8398 3.2383c-0.71094 0.60156-1.6406 0.73828-2.4883 0.39062-0.85156-0.35156-1.4102-1.1094-1.4883-2.0312l-0.46875-5c-0.21094-2.2695-1.9414-4.0195-4.2109-4.2617-2.5508-0.26172-5.1289-0.25-7.6797 0.03125-2.2695 0.25-3.9883 2.0195-4.1797 4.2891l-0.42969 5.0117c-0.078125 0.92188-0.62891 1.6797-1.4805 2.0391-0.85156 0.35938-1.7812 0.21094-2.4883-0.37891l-3.8711-3.2109c-1.7617-1.4609-4.2188-1.4688-5.9883-0.03125-1.9883 1.6211-3.8086 3.4492-5.4102 5.4609-1.4219 1.7812-1.3906 4.2383 0.078125 5.9883l3.2383 3.8398c0.60156 0.71094 0.73828 1.6406 0.39062 2.4883-0.35156 0.85156-1.1094 1.4102-2.0312 1.4883l-5 0.46875c-2.2695 0.21094-4.0195 1.9414-4.2617 4.2109-0.26172 2.5508-0.25 5.1289 0.03125 7.6797 0.25 2.2695 2.0195 3.9883 4.2891 4.1797l5.0117 0.42969c0.92188 0.078126 1.6797 0.62891 2.0391 1.4805 0.35938 0.85156 0.21094 1.7812-0.37891 2.4883l-3.2109 3.8711c-1.4609 1.7617-1.4688 4.2188-0.03125 5.9883 1.6211 1.9883 3.4492 3.8086 5.4609 5.4102 1.7812 1.4219 4.2383 1.3906 5.9883-0.078125l3.8398-3.2383c0.71094-0.60156 1.6406-0.73828 2.4883-0.39063 0.85156 0.35156 1.4102 1.1094 1.4883 2.0312l0.46875 5c0.21094 2.2695 1.9414 4.0195 4.2109 4.2617 1.2305 0.12891 2.4688 0.19141 3.6992 0.19141 1.3281 0 2.6602-0.070313 3.9805-0.21875 2.2695-0.25 3.9883-2.0195 4.1797-4.2891l0.42969-5.0117c0.078125-0.92188 0.62891-1.6797 1.4805-2.0391s1.7812-0.21094 2.4883 0.37109l3.8711 3.2109c1.7617 1.4609 4.2188 1.4688 5.9883 0.03125 1.9883-1.6211 3.8086-3.4492 5.4102-5.4609 1.4219-1.7812 1.3906-4.2383-0.078126-5.9883l-3.2383-3.8398c-0.60156-0.71094-0.73828-1.6406-0.39062-2.4883 0.35156-0.85156 1.1094-1.4102 2.0312-1.4883l5-0.46875c2.2695-0.21094 4.0195-1.9414 4.2617-4.2109 0.26953-2.5469 0.25781-5.125-0.03125-7.6758zm-1.8711 7.4805c-0.14062 1.3516-1.1797 2.3789-2.5312 2.5l-5 0.46875c-1.6211 0.14844-3.0117 1.1797-3.6211 2.6797-0.60938 1.5-0.33984 3.2109 0.69922 4.4492l3.2383 3.8398c0.87109 1.0391 0.89062 2.5 0.050781 3.5586-1.5117 1.8984-3.2383 3.6289-5.1211 5.1602-1.0508 0.85156-2.5117 0.85156-3.5586-0.019531l-3.8711-3.2109c-1.25-1.0391-2.9609-1.2891-4.4492-0.67188-1.5 0.62891-2.5117 2.0195-2.6484 3.6406l-0.42969 5.0117c-0.10938 1.3516-1.1406 2.3984-2.4805 2.5508-2.4102 0.26953-4.8594 0.28125-7.2695 0.03125-1.3516-0.14062-2.3789-1.1797-2.5-2.5312l-0.46875-5c-0.14844-1.6211-1.1797-3.0117-2.6797-3.6211-0.53125-0.21875-1.0898-0.32031-1.6484-0.32031-1.0117 0-2 0.35156-2.8008 1.0312l-3.8398 3.2383c-1.0391 0.87109-2.5 0.89062-3.5586 0.050782-1.8984-1.5117-3.6289-3.2383-5.1602-5.1211-0.85156-1.0508-0.85156-2.5117 0.019531-3.5586l3.2109-3.8711c1.0391-1.25 1.2891-2.9609 0.67188-4.4492-0.62891-1.5-2.0195-2.5117-3.6406-2.6484l-5.0117-0.42969c-1.3516-0.10937-2.3984-1.1406-2.5508-2.4805-0.26953-2.4102-0.28125-4.8594-0.03125-7.2695 0.14063-1.3516 1.1797-2.3789 2.5312-2.5l5-0.46875c1.6211-0.14844 3.0117-1.1797 3.6211-2.6797s0.35156-3.2109-0.69922-4.4492l-3.2383-3.8398c-0.87109-1.0391-0.89062-2.5-0.050781-3.5586 1.5117-1.8984 3.2383-3.6289 5.1211-5.1602 1.0508-0.85156 2.5117-0.85156 3.5586 0.019532l3.8711 3.2109c1.25 1.0391 2.9609 1.2891 4.4492 0.67188 1.5-0.62891 2.5117-2.0195 2.6484-3.6406l0.42969-5.0117c0.10938-1.3516 1.1406-2.3984 2.4805-2.5508 2.4102-0.26953 4.8594-0.28125 7.2695-0.03125 1.3516 0.14062 2.3789 1.1797 2.5 2.5312l0.46875 5c0.14844 1.6211 1.1797 3.0117 2.6797 3.6211s3.2109 0.33984 4.4492-0.69922l3.8398-3.2383c1.0391-0.87109 2.5-0.89062 3.5586-0.050781 1.8984 1.5117 3.6289 3.2383 5.1602 5.1211 0.85156 1.0508 0.85156 2.5117-0.019531 3.5586l-3.2109 3.8711c-1.0391 1.25-1.2891 2.9609-0.67188 4.4492 0.62891 1.5 2.0195 2.5117 3.6406 2.6484l5.0117 0.42969c1.3516 0.10938 2.3984 1.1406 2.5508 2.4805 0.27344 2.3984 0.28125 4.8477 0.03125 7.2578zm-56.949-38.121c2.7305 0 4.9492-2.2188 4.9492-4.9492 0-0.48828-0.070312-0.96094-0.19922-1.4102 5.8828-2.6914 12.172-4.0586 18.711-4.0586 8.7109 0 17.09 2.4609 24.352 7.1484l-3.8086 0.73828c-0.51953 0.10156-0.85938 0.60156-0.76172 1.1211 0.089844 0.46094 0.48828 0.78125 0.94141 0.78125 0.058594 0 0.12109-0.011719 0.17969-0.019531l6.0703-1.1797c0.51953-0.10156 0.85938-0.60156 0.76172-1.1211l-1.1797-6.0703c-0.10156-0.51953-0.60156-0.85938-1.1211-0.76172-0.51953 0.10156-0.85938 0.60156-0.76172 1.1211l0.73047 3.7812c-7.5742-4.8789-16.312-7.4492-25.402-7.4492-6.8516 0-13.441 1.4414-19.609 4.2812-0.91016-1.1211-2.3008-1.8516-3.8516-1.8516-2.7305 0-4.9492 2.2188-4.9492 4.9492 0 2.7305 2.2188 4.9492 4.9492 4.9492zm0-7.9805c1.6719 0 3.0312 1.3594 3.0312 3.0312 0 1.6719-1.3594 3.0312-3.0312 3.0312-1.6719 0-3.0312-1.3594-3.0312-3.0312 0.003907-1.668 1.3633-3.0312 3.0312-3.0312zm-16.109 61.113c-0.48828 0-0.96094 0.070312-1.4102 0.19922-2.6914-5.8828-4.0586-12.172-4.0586-18.711 0-8.7109 2.4688-17.102 7.1484-24.359l0.75 3.8203c0.10156 0.51953 0.60156 0.85937 1.1211 0.76172 0.51953-0.10156 0.85938-0.60938 0.76172-1.1211l-1.1914-6.0703c-0.10156-0.51953-0.60938-0.85938-1.1211-0.76172l-6.0703 1.1914c-0.51953 0.10156-0.85938 0.60937-0.76172 1.1211 0.10156 0.51953 0.60156 0.85938 1.1211 0.76172l3.7812-0.73828c-4.8789 7.5664-7.4492 16.305-7.4492 25.395 0 6.8516 1.4414 13.441 4.2812 19.609-1.1211 0.91016-1.8516 2.3008-1.8516 3.8516 0 2.7305 2.2188 4.9492 4.9492 4.9492 2.7305 0 4.9492-2.2188 4.9492-4.9492 0-2.7305-2.2188-4.9492-4.9492-4.9492zm0 7.9766c-1.6719 0-3.0312-1.3594-3.0312-3.0312s1.3594-3.0312 3.0312-3.0312c1.6719 0 3.0312 1.3594 3.0312 3.0312 0.007812 1.6719-1.3516 3.0312-3.0312 3.0312zm63.031 8.1328c-2.7305 0-4.9492 2.2188-4.9492 4.9492 0 0.48828 0.070312 0.96094 0.19922 1.4102-5.8789 2.6914-12.172 4.0586-18.711 4.0586-8.7617 0-17.18-2.4883-24.469-7.2188l3.9102-0.94141c0.51172-0.12109 0.82812-0.64062 0.71094-1.1602-0.12109-0.51172-0.64062-0.82812-1.1602-0.71094l-6.0117 1.4492c-0.51172 0.12109-0.82812 0.64062-0.71094 1.1602l1.4492 6.0117c0.12109 0.51172 0.64062 0.82812 1.1602 0.71094 0.51172-0.12109 0.82812-0.64062 0.71094-1.1602l-0.87109-3.6016c7.5508 4.8398 16.25 7.3789 25.281 7.3789 6.8516 0 13.441-1.4414 19.609-4.2812 0.91016 1.1211 2.3008 1.8516 3.8516 1.8516 2.7305 0 4.9492-2.2188 4.9492-4.9492 0-2.7266-2.2188-4.957-4.9492-4.957zm0 7.9805c-1.6719 0-3.0312-1.3594-3.0312-3.0312 0-1.6719 1.3594-3.0312 3.0312-3.0312 1.6719 0 3.0312 1.3594 3.0312 3.0312-0.003907 1.668-1.3633 3.0312-3.0312 3.0312zm19.711-18.203-3.5898 0.87109c4.8281-7.5508 7.3789-16.25 7.3789-25.281 0-6.8516-1.4414-13.441-4.2812-19.609 1.1211-0.91016 1.8516-2.3008 1.8516-3.8516 0-2.7305-2.2188-4.9492-4.9492-4.9492s-4.9492 2.2188-4.9492 4.9492c0 2.7305 2.2188 4.9492 4.9492 4.9492 0.48828 0 0.96094-0.070312 1.4102-0.19922 2.6914 5.8789 4.0586 12.18 4.0586 18.711 0 8.75-2.4883 17.191-7.2188 24.48l-0.94922-3.9102c-0.12109-0.51172-0.64062-0.82812-1.1602-0.71094-0.51172 0.12109-0.82812 0.64062-0.71094 1.1602l1.4609 6.0117c0.058594 0.25 0.21875 0.46094 0.42969 0.58984 0.14844 0.089844 0.32031 0.14062 0.5 0.14062 0.078125 0 0.14844-0.011719 0.23047-0.03125l6.0117-1.4609c0.51172-0.12109 0.82812-0.64062 0.71094-1.1602-0.15625-0.49609-0.67578-0.81641-1.1836-0.69922zm-6.6406-47.859c0-1.6719 1.3594-3.0312 3.0312-3.0312s3.0312 1.3594 3.0312 3.0312c0 1.6719-1.3594 3.0312-3.0312 3.0312-1.6719 0.007813-3.0312-1.3594-3.0312-3.0312z"/>
</svg>