<svg xmlns="http://www.w3.org/2000/svg" width="36" height="36" viewBox="0 0 36 36" fill="none">
  <path d="M10.125 4.5V7.875M25.875 4.5V7.875M4.5 28.125V11.25C4.5 10.3549 4.85558 9.49645 5.48851 8.86351C6.12145 8.23058 6.97989 7.875 7.875 7.875H28.125C29.0201 7.875 29.8785 8.23058 30.5115 8.86351C31.1444 9.49645 31.5 10.3549 31.5 11.25V28.125M4.5 28.125C4.5 29.0201 4.85558 29.8785 5.48851 30.5115C6.12145 31.1444 6.97989 31.5 7.875 31.5H28.125C29.0201 31.5 29.8785 31.1444 30.5115 30.5115C31.1444 29.8785 31.5 29.0201 31.5 28.125M4.5 28.125V16.875C4.5 15.9799 4.85558 15.1215 5.48851 14.4885C6.12145 13.8556 6.97989 13.5 7.875 13.5H28.125C29.0201 13.5 29.8785 13.8556 30.5115 14.4885C31.1444 15.1215 31.5 15.9799 31.5 16.875V28.125M18 19.125H18.012V19.137H18V19.125ZM18 22.5H18.012V22.512H18V22.5ZM18 25.875H18.012V25.887H18V25.875ZM14.625 22.5H14.637V22.512H14.625V22.5ZM14.625 25.875H14.637V25.887H14.625V25.875ZM11.25 22.5H11.262V22.512H11.25V22.5ZM11.25 25.875H11.262V25.887H11.25V25.875ZM21.375 19.125H21.387V19.137H21.375V19.125ZM21.375 22.5H21.387V22.512H21.375V22.5ZM21.375 25.875H21.387V25.887H21.375V25.875ZM24.75 19.125H24.762V19.137H24.75V19.125ZM24.75 22.5H24.762V22.512H24.75V22.5Z" stroke="white" stroke-width="1.5" stroke-linecap="round" stroke-linejoin="round"/>
</svg>