<svg xmlns="http://www.w3.org/2000/svg" width="21" height="21" viewBox="0 0 21 21" fill="none">
  <path d="M10.3979 3.01563C12.6565 3.01563 14.87 3.20583 17.0245 3.57147C17.4615 3.64525 17.7763 4.02729 17.7763 4.46999V5.32588C17.7763 5.56812 17.7286 5.80798 17.6359 6.03178C17.5432 6.25558 17.4073 6.45892 17.236 6.63021L12.7828 11.0835C12.6115 11.2548 12.4756 11.4581 12.3829 11.6819C12.2902 11.9057 12.2425 12.1456 12.2425 12.3878V14.7874C12.2426 15.1301 12.1472 15.466 11.9671 15.7575C11.7869 16.049 11.5291 16.2845 11.2226 16.4377L8.55331 17.7724V12.3878C8.55332 12.1456 8.50561 11.9057 8.41291 11.6819C8.32021 11.4581 8.18434 11.2548 8.01305 11.0835L3.55979 6.63021C3.38851 6.45892 3.25264 6.25558 3.15994 6.03178C3.06724 5.80798 3.01953 5.56812 3.01953 5.32588V4.46999C3.01953 4.02729 3.33434 3.64525 3.77131 3.57147C5.96069 3.20079 8.17737 3.01485 10.3979 3.01563Z" stroke="black" stroke-width="1.22973" stroke-linecap="round" stroke-linejoin="round"/>
</svg>