<svg width="123" height="40" viewBox="0 0 123 40" fill="none" xmlns="http://www.w3.org/2000/svg">
<path d="M44.2462 11.9492H41.4502V26.6322H44.2723L44.2462 11.9492Z" fill="#133763"/>
<path d="M4.27198 11.8242H1V26.6299H4.27198V11.8242Z" fill="#133763" stroke="black"/>
<path d="M4.33301 19.1269L11.5314 11.8672H16.378L8.70929 19.6177L15.9281 26.6525H11.5314L4.33301 19.1269Z" fill="#133763"/>
<path d="M29.8141 11.9258H22.4521V14.8706H29.262C30.9307 14.8706 31.9205 16.0362 31.9205 16.936C31.6546 18.8378 29.9095 19.0764 29.262 19.1855H22.4521V26.6497H25.4583V21.7826H28.6894L31.2456 26.6497H35.4583L32.0431 21.7826C33.81 20.8338 34.5994 19.1991 34.8039 18.4288C35.1147 16.9565 35.022 15.6272 34.5789 14.707C33.5155 12.4984 30.932 12.0008 29.8141 11.9258Z" fill="#133763"/>
<path d="M55.0493 11.9883H63.4132V14.9331H54.6773C53.7939 14.9331 53.0247 15.9351 53.0247 16.4055C52.902 17.6325 54.0881 18.3073 54.5993 18.3073H58.7098C60.6321 18.3073 62.6045 18.9164 63.4132 20.8226C63.6996 21.4975 63.6587 23.338 63.4132 24.0333C63.3676 24.1626 62.2272 26.7122 58.812 26.7122H50.264V23.8288H58.812C59.3846 23.7674 60.4276 23.338 60.4276 22.3359C60.4276 21.3774 59.2824 20.8226 58.7098 20.8226H54.5993C52.2885 20.8226 50.7344 19.3298 50.2231 18.1233C49.8796 16.749 50.1617 15.308 50.3049 14.9331C51.3356 12.2337 54.0541 12.1042 55.0493 11.9883Z" fill="#133763"/>
<path d="M73.9653 11.9883H82.3293V14.9331H73.5933C72.7099 14.9331 71.9407 15.9351 71.9407 16.4055C71.818 17.6325 73.0041 18.3073 73.5154 18.3073H77.6258C79.5481 18.3073 81.5205 18.9164 82.3293 20.8226C82.6156 21.4975 82.5747 23.338 82.3293 24.0333C82.2836 24.1626 81.1432 26.7122 77.7281 26.7122H69.18V23.8288H77.7281C78.3006 23.7674 79.3436 23.338 79.3436 22.3359C79.3436 21.3774 78.1984 20.8226 77.6258 20.8226H73.5154C71.2045 20.8226 69.6504 19.3298 69.1392 18.1233C68.7956 16.749 69.0778 15.308 69.2209 14.9331C70.2516 12.2337 72.9701 12.1042 73.9653 11.9883Z" fill="#133763"/>
<path d="M105.539 14.6033L101.102 23.683H98.0752L105.539 9L112.983 23.683H110.038L105.539 14.6033Z" fill="#133763"/>
<path d="M91.1624 25.7266H89.1992V32.7H100.692V39.2644L102.328 40.0006L109.67 32.6795H121.817V25.747H119.956V30.7572H108.79L102.655 36.8922V30.7572H91.1624V25.7266Z" fill="#61D6CD"/>
<path d="M91.5103 20.9414H88.9336V23.6817H91.5103V20.9414Z" fill="#133763"/>
<path d="M122.288 9H119.711V23.6421H122.288V9Z" fill="#133763"/>
<path d="M119.956 1.92229H91.142V18.8139H89.1992V0H122.124V6.80982H119.956V1.92229Z" fill="#61D6CD"/>
</svg>
