<svg xmlns="http://www.w3.org/2000/svg" width="249" height="80" viewBox="0 0 249 80" fill="none">
  <mask id="path-1-inside-1_156_4153" fill="white">
    <path d="M0 0H249V80H0V0Z"/>
  </mask>
  <path d="M0 0H249V80H0V0Z" fill="white"/>
  <path d="M249 79.5H0V80.5H249V79.5Z" fill="#EEEEEE" mask="url(#path-1-inside-1_156_4153)"/>
  <path d="M83.2457 31.9453H80.4497V46.6283H83.2718L83.2457 31.9453Z" fill="#133763"/>
  <path d="M43.272 31.8223H40V46.628H43.272V31.8223Z" fill="#133763" stroke="black"/>
  <path d="M43.333 39.123L50.5314 31.8633H55.378L47.7093 39.6138L54.9281 46.6486H50.5314L43.333 39.123Z" fill="#133763"/>
  <path d="M68.8141 31.9258H61.4521V34.8706H68.262C69.9307 34.8706 70.9205 36.0362 70.9205 36.936C70.6546 38.8378 68.9095 39.0764 68.262 39.1855H61.4521V46.6497H64.4583V41.7826H67.6894L70.2456 46.6497H74.4583L71.0431 41.7826C72.81 40.8338 73.5994 39.1991 73.8039 38.4288C74.1147 36.9565 74.022 35.6272 73.5789 34.707C72.5155 32.4984 69.932 32.0008 68.8141 31.9258Z" fill="#133763"/>
  <path d="M94.0493 31.9863H102.413V34.9311H93.6773C92.7939 34.9311 92.0247 35.9332 92.0247 36.4035C91.902 37.6305 93.0881 38.3053 93.5993 38.3053H97.7098C99.6321 38.3053 101.605 38.9144 102.413 40.8207C102.7 41.4955 102.659 43.336 102.413 44.0313C102.368 44.1607 101.227 46.7103 97.812 46.7103H89.264V43.8268H97.812C98.3846 43.7655 99.4276 43.336 99.4276 42.334C99.4276 41.3754 98.2824 40.8207 97.7098 40.8207H93.5993C91.2885 40.8207 89.7344 39.3278 89.2231 38.1213C88.8796 36.7471 89.1617 35.306 89.3049 34.9311C90.3356 32.2317 93.0541 32.1022 94.0493 31.9863Z" fill="#133763"/>
  <path d="M112.965 31.9863H121.329V34.9311H112.593C111.71 34.9311 110.941 35.9332 110.941 36.4035C110.818 37.6305 112.004 38.3053 112.515 38.3053H116.626C118.548 38.3053 120.521 38.9144 121.329 40.8207C121.616 41.4955 121.575 43.336 121.329 44.0313C121.284 44.1607 120.143 46.7103 116.728 46.7103H108.18V43.8268H116.728C117.301 43.7655 118.344 43.336 118.344 42.334C118.344 41.3754 117.198 40.8207 116.626 40.8207H112.515C110.205 40.8207 108.65 39.3278 108.139 38.1213C107.796 36.7471 108.078 35.306 108.221 34.9311C109.252 32.2317 111.97 32.1022 112.965 31.9863Z" fill="#133763"/>
  <path d="M144.539 34.6013L140.102 43.6811H137.075L144.539 28.998L151.983 43.6811H149.038L144.539 34.6013Z" fill="#133763"/>
  <path d="M130.163 45.7266H128.2V52.7H139.693V59.2644L141.329 60.0006L148.67 52.6795H160.817V45.747H158.956V50.7572H147.791L141.656 56.8922V50.7572H130.163V45.7266Z" fill="#61D6CD"/>
  <path d="M130.511 40.9414H127.934V43.6817H130.511V40.9414Z" fill="#133763"/>
  <path d="M161.288 28.998H158.711V43.6402H161.288V28.998Z" fill="#133763"/>
  <path d="M158.956 21.9223H130.143V38.8139H128.2V20H161.124V26.8098H158.956V21.9223Z" fill="#61D6CD"/>
</svg>