<svg width="20" height="24" viewBox="0 0 20 24" fill="none" xmlns="http://www.w3.org/2000/svg">
<path d="M9.10084 12.4952L9.3141 13.774C9.4515 14.5987 9.84324 15.36 10.4346 15.9512L11.5309 17.0475L11.2722 17.5655C11.1271 17.855 11.184 18.2046 11.4126 18.4332L12.3138 19.3343C12.4542 19.4747 12.5337 19.6665 12.5337 19.8657V20.5937C12.5337 20.8784 12.6942 21.1385 12.9496 21.2661L13.0518 21.3169C13.3413 21.462 13.691 21.4052 13.9196 21.1766L14.4029 20.6933C15.1483 19.9479 15.677 19.0139 15.9325 17.9913C15.9658 17.8588 15.9609 17.7195 15.9186 17.5896C15.8763 17.4596 15.7981 17.3442 15.6932 17.2567L14.8041 16.516C14.6363 16.3756 14.415 16.3162 14.199 16.3522L13.4169 16.4826C13.2988 16.5022 13.1778 16.4935 13.0639 16.4569C12.9499 16.4204 12.8463 16.3573 12.7617 16.2727L12.5645 16.0755C12.4946 16.0057 12.4392 15.9228 12.4014 15.8315C12.3637 15.7403 12.3442 15.6425 12.3442 15.5437C12.3442 15.445 12.3637 15.3472 12.4014 15.2559C12.4392 15.1647 12.4946 15.0818 12.5645 15.012L12.6514 14.9237C12.7631 14.812 12.9072 14.7383 13.0632 14.7131C13.2193 14.6879 13.3792 14.7125 13.5205 14.7834L13.9236 14.9852C14.0252 15.0362 14.1403 15.0539 14.2525 15.0358C14.3647 15.0177 14.4683 14.9647 14.5487 14.8843C14.6291 14.804 14.6821 14.7003 14.7002 14.5881C14.7183 14.4759 14.7006 14.3609 14.6496 14.2593L14.5393 14.0394L15.379 13.4798C15.8144 13.1894 16.1665 12.7903 16.4005 12.3221L16.4981 12.1269M9.10084 12.4952C8.15295 13.3143 7.48439 14.4088 7.18844 15.626C6.89249 16.8432 6.98391 18.1224 7.44995 19.2852C7.91599 20.448 8.7334 21.4363 9.78815 22.1123C10.8429 22.7883 12.0823 23.1182 13.3336 23.056C14.5848 22.9938 15.7855 22.5426 16.768 21.7654C17.7505 20.9882 18.4658 19.9237 18.8143 18.7204C19.1627 17.5171 19.1268 16.2351 18.7116 15.0533C18.2964 13.8714 17.5226 12.8479 16.4981 12.1269M9.10084 12.4952C10.1929 11.5489 11.5901 11.029 13.0351 11.0313C14.3247 11.0313 15.5194 11.4363 16.4981 12.1269" stroke="black" stroke-linecap="round" stroke-linejoin="round"/>
<path fill-rule="evenodd" clip-rule="evenodd" d="M5.93768 1.96734C6.58116 1.35019 7.4582 1 8.37685 1C9.2955 1 10.1725 1.35019 10.816 1.96734C11.4588 2.5838 11.8158 3.41534 11.8158 4.27775C11.8158 5.14016 11.4588 5.9717 10.816 6.58816C10.1725 7.20531 9.2955 7.5555 8.37685 7.5555C7.4582 7.5555 6.58116 7.20531 5.93768 6.58816C5.29491 5.9717 4.9379 5.14016 4.9379 4.27775C4.9379 3.41534 5.29491 2.5838 5.93768 1.96734ZM8.37685 0C7.20615 0 6.07941 0.44583 5.2455 1.24562C4.41087 2.04609 3.9379 3.13632 3.9379 4.27775C3.9379 5.41918 4.41087 6.50942 5.2455 7.30988C6.07941 8.10967 7.20615 8.5555 8.37685 8.5555C9.54754 8.5555 10.6743 8.10967 11.5082 7.30988C12.3428 6.50942 12.8158 5.41918 12.8158 4.27775C12.8158 3.13632 12.3428 2.04609 11.5082 1.24562C10.6743 0.44583 9.54754 0 8.37685 0ZM3.19514 13.6013C4.57379 12.3005 6.43448 11.5681 8.37685 11.5681C8.97434 11.5681 9.56411 11.6374 10.1345 11.7712C10.5954 11.5172 11.0932 11.3218 11.6177 11.1952C10.6003 10.7848 9.49958 10.5681 8.37685 10.5681C6.18508 10.5681 4.07726 11.3941 2.50886 12.8739C0.939787 14.3544 0.036176 16.3715 7.29442e-05 18.4917C-0.00335474 18.693 0.114277 18.8767 0.298532 18.9578C2.71286 20.0208 5.39269 20.6214 8.21403 20.6437C7.97783 20.3279 7.77191 19.9883 7.6006 19.6289C5.26562 19.5361 3.04387 19.0268 1.01376 18.1767C1.12807 16.4539 1.9001 14.8232 3.19514 13.6013Z" fill="black"/>
</svg>
