<svg width="25" height="24" viewBox="0 0 25 24" fill="none" xmlns="http://www.w3.org/2000/svg">
<path d="M13.9824 10.4141C13.5917 10.4141 13.2661 10.7769 13.2661 11.212V12.4089H10.5801C9.49503 12.4089 8.61032 13.3945 8.61032 14.6033V21.7849C8.61032 22.9937 9.49503 23.9793 10.5801 23.9793H22.0404C23.1255 23.9793 24.0102 22.9937 24.0102 21.7849V14.6033C24.0102 13.3945 23.1255 12.398 22.0404 12.4089H19.3544V11.212C19.3544 10.7769 19.0288 10.4141 18.6381 10.4141H13.9824ZM13.9824 11.212H18.6381V12.4089H13.9824V11.212ZM10.5801 13.2069H22.0404C22.7411 13.2069 23.2939 13.8228 23.2939 14.6033V15.9686C21.8263 16.896 19.8685 17.5348 17.6757 17.7266C17.4949 17.0755 16.9515 16.5982 16.3103 16.5982C15.669 16.5982 15.1256 17.0755 14.9449 17.7266C12.7493 17.5352 10.7953 16.8976 9.32659 15.9686V14.6033C9.32659 13.8228 9.87945 13.2069 10.5801 13.2069ZM9.32659 16.8787C10.8589 17.7628 12.7857 18.3492 14.9113 18.5308C15.0521 19.2464 15.6277 19.79 16.3103 19.79C16.9928 19.79 17.5684 19.2464 17.7092 18.5308C19.8363 18.3496 21.7607 17.7632 23.2939 16.8787V21.7849C23.2939 22.5654 22.7411 23.1813 22.0404 23.1813H10.5801C9.87945 23.1813 9.32659 22.5654 9.32659 21.7849L9.32659 16.8787ZM16.3103 17.3962C16.7101 17.3962 17.0265 17.7487 17.0265 18.1941C17.0265 18.6396 16.7101 18.9921 16.3103 18.9921C15.9104 18.9921 15.594 18.6396 15.594 18.1941C15.594 17.7487 15.9104 17.3962 16.3103 17.3962Z" fill="black"/>
<path fill-rule="evenodd" clip-rule="evenodd" d="M6.05432 2.01186C6.71486 1.36515 7.61295 1 8.55157 1C9.49018 1 10.3883 1.36515 11.0488 2.01186C11.709 2.65822 12.0779 3.53258 12.0779 4.442C12.0779 5.35142 11.709 6.22579 11.0488 6.87214C10.3883 7.51885 9.49018 7.884 8.55157 7.884C7.61295 7.884 6.71486 7.51885 6.05432 6.87214C5.39414 6.22579 5.02525 5.35142 5.02525 4.442C5.02525 3.53258 5.39414 2.65822 6.05432 2.01186ZM8.55157 0C7.35449 0 6.20436 0.46548 5.35474 1.29731C4.50475 2.12949 4.02525 3.26045 4.02525 4.442C4.02525 5.62355 4.50475 6.75451 5.35474 7.58669C6.20436 8.41852 7.35449 8.884 8.55157 8.884C9.74865 8.884 10.8988 8.41852 11.7484 7.58669C12.5984 6.75451 13.0779 5.62355 13.0779 4.442C13.0779 3.26045 12.5984 2.12949 11.7484 1.29731C10.8988 0.46548 9.74865 0 8.55157 0ZM3.25104 14.1515C4.663 12.7915 6.56652 12.0276 8.55157 12.0276C9.46845 12.0276 10.3679 12.1906 11.2096 12.5H13.3928C11.9768 11.5469 10.2906 11.0276 8.55157 11.0276C6.31078 11.0276 4.15776 11.8898 2.55731 13.4313C0.956509 14.9732 0.0368174 17.0715 6.99875e-05 19.2745C-0.00326352 19.4743 0.112732 19.657 0.295034 19.7389C2.80949 20.869 5.60618 21.4983 8.5509 21.4984C8.59312 21.4985 8.63533 21.4984 8.67753 21.4982V20.4982C8.63577 20.4984 8.594 20.4985 8.55223 20.4984H8.55157C5.87003 20.4984 3.32044 19.9501 1.01294 18.9619C1.12603 17.1488 1.91976 15.4338 3.25104 14.1515ZM8.55157 20.9984L8.5509 21.4984H8.55157V20.9984Z" fill="black"/>
<path d="M23.3082 6.57914V8.77723C23.3082 9.04072 23.2385 9.10831 22.9668 9.10831H21.905C21.6472 9.10831 21.5676 9.03093 21.5676 8.77821V4.35167C21.5676 4.21062 21.5676 4.21062 21.4293 4.19886C21.1048 4.16948 20.9486 3.85505 21.1427 3.60037C21.4332 3.2203 21.7318 2.84579 22.0383 2.47684C22.0835 2.41514 22.1426 2.36464 22.2111 2.32935C22.2795 2.29406 22.3554 2.27495 22.4326 2.27352C22.5099 2.2721 22.5864 2.2884 22.6562 2.32114C22.7259 2.35388 22.787 2.40215 22.8345 2.46214C23.0524 2.70605 23.2475 2.96954 23.4525 3.22422L23.7231 3.56314C23.7769 3.61761 23.8126 3.68677 23.8258 3.76157C23.8389 3.83637 23.8288 3.91333 23.7968 3.98239C23.7649 4.05166 23.712 4.1095 23.6454 4.14793C23.5787 4.18635 23.5016 4.20346 23.4246 4.1969C23.336 4.1969 23.3151 4.22629 23.3151 4.30955C23.3092 5.06673 23.3082 5.82294 23.3082 6.57914ZM23.2982 3.75513L22.4911 2.77559C22.4394 2.71388 22.4035 2.75502 22.3687 2.7991L21.6482 3.68069C21.6317 3.70455 21.6167 3.72941 21.6034 3.75513C21.6472 3.75513 21.6751 3.75513 21.7029 3.75513C21.7616 3.75356 21.8203 3.76016 21.8771 3.77472C22.0075 3.82272 22.0224 3.93831 22.0234 4.05487C22.0234 4.46236 22.0234 4.86985 22.0234 5.27636V8.52059C22.0234 8.65478 22.0234 8.65478 22.1647 8.65478H22.7081C22.8573 8.65478 22.8573 8.65478 22.8573 8.51079V4.73565C22.8573 4.49958 22.8573 4.26351 22.8573 4.02646C22.8573 3.84133 22.9459 3.75807 23.132 3.75513H23.2982Z" fill="black"/>
<path d="M19.1793 2.43894L19.0639 2.37233C19.0091 2.3451 18.9629 2.30373 18.9302 2.25264C18.8975 2.20155 18.8795 2.14267 18.8782 2.0823C18.8769 2.02192 18.8922 1.96233 18.9227 1.90989C18.9531 1.85746 18.9974 1.81415 19.051 1.78461C19.3027 1.63278 19.5645 1.49761 19.8222 1.35557L20.3198 1.0813C20.5815 0.940249 20.8064 1.03037 20.8821 1.31345C21.0095 1.766 21.1219 2.21659 21.2413 2.6662C21.2647 2.73136 21.2678 2.80193 21.25 2.8688C21.2323 2.93567 21.1946 2.99578 21.1418 3.04136C21.0881 3.08789 21.0214 3.11736 20.9503 3.12593C20.8793 3.13449 20.8073 3.12175 20.7437 3.08936C20.5238 2.99924 20.5228 3.0012 20.3606 3.18731C19.6927 3.96009 18.8473 4.56516 17.8946 4.95244C17.3467 5.17133 16.7706 5.3144 16.1829 5.37756C15.8982 5.4089 15.6126 5.43633 15.327 5.46572C15.2669 5.46589 15.2082 5.44822 15.1585 5.41502C15.1088 5.38182 15.0704 5.33462 15.0484 5.2796C15.0392 5.25138 15.0358 5.22163 15.0385 5.19211C15.0411 5.16259 15.0498 5.13388 15.0639 5.10769C15.0779 5.0815 15.0972 5.05835 15.1205 5.03959C15.1438 5.02083 15.1707 5.00686 15.1996 4.99848C15.4315 4.90052 15.6664 4.82118 15.8962 4.72812C16.772 4.37353 17.603 3.94449 18.3354 3.34306C18.6639 3.0879 18.9488 2.78268 19.1793 2.43894ZM19.4978 2.05986C19.5112 2.07228 19.5255 2.08374 19.5406 2.09415C19.7784 2.23324 19.7993 2.31258 19.656 2.54669C19.3481 3.02355 18.957 3.44305 18.5006 3.78581C18.0798 4.11221 17.6286 4.39885 17.1532 4.64192C17.1193 4.66054 17.0895 4.686 17.0536 4.70853L17.0626 4.73596C17.092 4.73989 17.1218 4.73989 17.1512 4.73596C18.0235 4.49636 18.8232 4.05084 19.4809 3.43807C19.7396 3.19613 19.9725 2.92675 20.2113 2.66424C20.3725 2.48596 20.4243 2.46833 20.6522 2.56628C20.682 2.57902 20.7129 2.58783 20.7587 2.60449L20.4721 1.51132L19.4978 2.05986Z" fill="black"/>
<path d="M19.2817 6.90807V4.99699C19.2817 4.78149 19.3633 4.70312 19.5803 4.70312H20.7108C20.9407 4.70312 21.0243 4.78737 21.0243 5.0156C21.0243 6.2792 21.0243 7.54248 21.0243 8.80543C21.0243 9.04052 20.9417 9.1228 20.7058 9.1228C20.3336 9.1228 19.9614 9.1228 19.5892 9.1228C19.3603 9.1228 19.2807 9.04444 19.2807 8.8211L19.2817 6.90807ZM19.7335 6.90023C19.7335 7.45465 19.7335 8.00907 19.7335 8.56544C19.7335 8.64577 19.7574 8.67319 19.84 8.67221C20.045 8.67221 20.251 8.67221 20.456 8.67221C20.5416 8.67221 20.5725 8.64675 20.5705 8.56055C20.5705 8.2804 20.5705 7.99927 20.5705 7.71912C20.5705 6.90415 20.5705 6.08917 20.5705 5.27028C20.5705 5.17232 20.5406 5.1449 20.4441 5.14784C20.245 5.15371 20.046 5.15371 19.847 5.14784C19.7534 5.14784 19.7285 5.17624 19.7295 5.26538C19.7355 5.81098 19.7335 6.35561 19.7335 6.90023Z" fill="black"/>
<path d="M18.7333 7.36366C18.7333 7.84559 18.7333 8.32785 18.7333 8.81043C18.7333 9.02691 18.6507 9.11115 18.4347 9.11115C18.0566 9.11115 17.6777 9.11115 17.2982 9.11115C17.0753 9.11115 16.9917 9.02691 16.9917 8.80554C16.9917 7.84755 16.9917 6.88956 16.9917 5.93157C16.9917 5.71607 17.0763 5.63281 17.2903 5.63281H18.4377C18.6507 5.63281 18.7363 5.71509 18.7363 5.92667C18.7349 6.40599 18.734 6.88499 18.7333 7.36366ZM17.4485 6.08046C17.4449 6.09727 17.4422 6.11428 17.4406 6.1314C17.4406 6.94637 17.4406 7.76037 17.4406 8.57437C17.4406 8.64489 17.4704 8.66154 17.5341 8.66057C17.7461 8.66057 17.958 8.66057 18.17 8.66057C18.2626 8.66057 18.2855 8.63216 18.2855 8.54302C18.2855 7.75939 18.2855 6.9689 18.2855 6.18233C18.2855 6.14903 18.2855 6.1167 18.2795 6.0785L17.4485 6.08046Z" fill="black"/>
<path d="M16.4465 7.83879C16.4465 8.15322 16.4465 8.46765 16.4465 8.78307C16.4465 9.03481 16.3708 9.10925 16.119 9.11023C15.7502 9.11154 15.3816 9.11219 15.0134 9.11219C14.7825 9.11219 14.6999 9.03187 14.6989 8.80168C14.6989 8.1591 14.6989 7.51587 14.6989 6.87199C14.6989 6.65257 14.7805 6.57812 14.9975 6.57812H16.1479C16.3639 6.57812 16.4465 6.65257 16.4465 6.87199C16.4484 7.18936 16.4465 7.51456 16.4465 7.83879ZM15.9887 7.83879C15.9887 7.59587 15.9887 7.34902 15.9887 7.10904C15.9887 7.04341 15.9688 7.01892 15.8991 7.0199C15.6842 7.0199 15.4685 7.0199 15.2522 7.0199C15.1806 7.0199 15.1527 7.03949 15.1527 7.11197C15.1527 7.59456 15.1527 8.07747 15.1527 8.56071C15.1527 8.64593 15.1876 8.66454 15.2642 8.66356C15.4692 8.66356 15.6742 8.66356 15.8792 8.66356C15.9608 8.66356 15.9887 8.63907 15.9877 8.55777C15.9857 8.31583 15.9887 8.07682 15.9887 7.83879Z" fill="black"/>
</svg>
