<svg xmlns="http://www.w3.org/2000/svg" xmlns:xlink="http://www.w3.org/1999/xlink" version="1.1" x="0px" y="0px" viewBox="0 0 512 640" style="enable-background:new 0 0 512 512;" xml:space="preserve"><style type="text/css">
	.st0{fill-rule:evenodd;clip-rule:evenodd;}
</style><g><path class="st0" d="M352.872,40.532c14.557,3.416,28.297,9.145,40.961,16.993c0.405,0.251,0.863,0.206,1.219-0.149l12.462-12.462   c4.309-4.309,11.378-4.241,15.507,0.01l0.01-0.01l28.146,28.147c4.273,4.273,4.288,11.201-0.01,15.507l0.01,0.01l-12.457,12.456   c-0.355,0.355-0.4,0.815-0.149,1.219c7.846,12.66,13.581,26.413,16.994,40.967c0.111,0.474,0.45,0.741,0.952,0.741h17.601   c6.049,0,10.973,4.923,10.973,10.973v39.805c0,6.046-4.948,10.973-10.973,10.973h-17.607c-0.513,0-0.839,0.257-0.952,0.741   c-3.409,14.547-9.151,28.309-16.993,40.962c-0.25,0.403-0.202,0.879,0.14,1.229l0.01-0.01l12.462,12.462   c4.309,4.309,4.241,11.377-0.01,15.507l0.01,0.01l-28.147,28.147c-4.255,4.255-11.22,4.298-15.517,0l-12.457-12.457   c-0.35-0.356-0.809-0.403-1.219-0.149c-12.659,7.846-26.415,13.581-40.967,16.994c-0.493,0.116-0.741,0.453-0.741,0.952v17.601   c0,3.007-1.235,5.748-3.228,7.745l0.01,0.01c-1.986,1.986-4.73,3.218-7.755,3.218h-39.805c-6.046,0-10.973-4.948-10.973-10.973   v-17.607c0-0.26-0.065-0.474-0.176-0.622l-0.009,0.007c-0.128-0.161-0.32-0.282-0.556-0.337   c-14.526-3.406-28.329-9.155-40.961-16.993c-0.404-0.251-0.863-0.206-1.219,0.15l-12.462,12.462   c-4.309,4.309-11.378,4.241-15.508-0.01l-0.01,0.01l-28.147-28.147c-4.279-4.279-4.279-11.238,0-15.517l12.457-12.457   c0.355-0.355,0.4-0.815,0.149-1.219c-7.839-12.639-13.588-26.434-16.995-40.967c-0.111-0.475-0.45-0.741-0.951-0.741h-17.601   c-3.007,0-5.748-1.235-7.745-3.228l-0.01,0.01c-1.986-1.986-3.218-4.73-3.218-7.755v-39.805c0-6.049,4.924-10.973,10.973-10.973   h17.605c0.512,0,0.839-0.257,0.952-0.741c3.407-14.548,9.153-28.309,16.994-40.963c0.252-0.407,0.202-0.878-0.139-1.229l-0.01,0.01   l-12.46-12.46c-4.309-4.309-4.241-11.378,0.01-15.507l-0.01-0.01l28.147-28.147c4.255-4.255,11.22-4.298,15.517,0l12.461,12.462   c0.355,0.355,0.816,0.4,1.219,0.15c12.63-7.833,26.439-13.592,40.962-16.993l0.566-0.33l-0.01-0.008   c0.117-0.148,0.185-0.361,0.185-0.614V21.973c0-6.047,4.943-10.973,10.973-10.973h39.805c2.967,0,5.82,1.246,7.745,3.227l0.01-0.01   c1.987,1.986,3.218,4.731,3.218,7.755V39.58C352.131,40.101,352.367,40.414,352.872,40.532L352.872,40.532z M286.711,261.135v-12.5   c0-3.654,0.575-7.179,1.637-10.49c-1.287-2.686-3.232-5.001-5.621-6.734c-3.17-2.124-6.462-3.386-10.348-3.347l0,0   c-7.803,0-14.607,5.148-16.89,12.433C264.176,249.274,275.056,256.466,286.711,261.135L286.711,261.135z M293.578,228.017   c3.106-4.153,7.11-7.579,11.719-9.998c-16.456-14.652-6.018-41.951,15.959-41.951c21.991,0,32.406,27.319,15.959,41.951   c4.607,2.417,8.613,5.845,11.718,9.997c2.11-2.516,4.643-4.639,7.49-6.279c-6.587-7.712-5.501-19.326,2.37-25.706   c-3.658-30.369-40.842-44.499-63.592-22.795c-6.201,5.916-10.409,13.896-11.481,22.795c7.868,6.378,8.957,17.985,2.376,25.699   C288.919,223.353,291.494,225.533,293.578,228.017L293.578,228.017z M354.163,238.144c1.062,3.312,1.637,6.837,1.637,10.491v12.5   c11.736-4.702,22.453-11.822,31.223-20.639C382.224,225.185,361.117,223.635,354.163,238.144L354.163,238.144z M345.8,264.492   v-15.857c0-13.49-11.054-24.544-24.544-24.544v0c-13.49,0-24.545,11.054-24.545,24.544v15.857   C312.71,268.862,329.801,268.863,345.8,264.492L345.8,264.492z M272.379,192.017c0.626,0,1.245,0.032,1.854,0.094   c0.539-2.992,1.359-5.889,2.431-8.662c-17.648-11.998-41.573,0.805-41.573,22.022v4.24c3.311,8.172,7.75,15.766,13.124,22.589   c2.463-4.402,6.087-8.061,10.448-10.57C248.721,210.076,257.029,192.017,272.379,192.017L272.379,192.017z M278.052,204.366   c-5.038-5.038-13.697-1.457-13.697,5.673c0,7.18,8.698,10.672,13.697,5.674C281.185,212.581,281.185,207.499,278.052,204.366   L278.052,204.366z M383.849,221.73c4.361,2.51,7.984,6.167,10.448,10.571c5.374-6.822,9.813-14.416,13.124-22.589v-4.241   c0-21.192-23.9-34.038-41.573-22.022c1.071,2.773,1.891,5.671,2.431,8.662C384.454,190.456,394.341,209.43,383.849,221.73   L383.849,221.73z M370.132,228.063L370.132,228.063L370.132,228.063L370.132,228.063z M321.255,71.905   c-56.846,0-102.932,46.086-102.932,102.932c0,56.342,45.558,102.932,102.932,102.932c56.847,0,102.932-46.085,102.932-102.932   C424.187,117.99,378.101,71.905,321.255,71.905L321.255,71.905z M386.969,109.124c-36.292-36.292-95.135-36.292-131.426,0   c-20.373,20.373-30.607,49.47-26.228,79.316c3.616-6.836,9.328-12.4,16.267-15.83c-16.215-14.722-5.734-41.79,16.138-41.79   c21.869,0,32.359,27.066,16.132,41.796c1.164,0.577,2.295,1.216,3.389,1.912c5.2-7.956,12.686-14.258,21.47-17.992   c-14.836-11.251-16.371-33.018-3.176-46.214c11.998-11.998,31.447-11.998,43.445,0c13.194,13.194,11.662,34.959-3.176,46.214   c8.783,3.732,16.271,10.036,21.47,17.992c1.094-0.696,2.225-1.334,3.389-1.912c-16.229-14.731-5.736-41.796,16.131-41.796   c21.871,0,32.354,27.067,16.138,41.79c6.938,3.431,12.65,8.993,16.267,15.83C417.574,158.592,407.343,129.498,386.969,109.124   L386.969,109.124z M375.806,204.366c-5.038-5.038-13.697-1.457-13.697,5.673c0,7.132,8.66,10.711,13.697,5.674   C378.939,212.581,378.939,207.499,375.806,204.366L375.806,204.366z M370.132,218.063L370.132,218.063L370.132,218.063z    M321.255,224.091L321.255,224.091L321.255,224.091L321.255,224.091z M331.163,190.172c-8.802-8.802-23.919-2.539-23.919,9.908   c0,12.469,15.138,18.689,23.919,9.908C336.634,204.517,336.634,195.643,331.163,190.172L331.163,190.172z M321.255,214.091   L321.255,214.091L321.255,214.091z M390.7,144.924c-8.802-8.802-23.919-2.539-23.919,9.908c0,12.448,15.118,18.709,23.919,9.908   C396.171,159.269,396.171,150.395,390.7,144.924L390.7,144.924z M80.252,390.893c17.518,3.686,22.228,26.83,7.182,36.953   c-14.504,9.759-34.479-2.075-31.503-20.614c1.704-10.613,12.115-18.319,23.768-16.448C79.887,390.81,80.072,390.846,80.252,390.893   L80.252,390.893z M84.712,405.044c-5.02-7.46-16.959-5.585-18.927,3.842c-1.865,8.931,8.301,15.928,16.102,10.679   C86.65,416.36,87.915,409.805,84.712,405.044L84.712,405.044z M335.908,117.392c-13.017-13.018-35.374-3.754-35.374,14.653   c0,18.405,22.355,27.671,35.374,14.652C343.999,138.606,344,125.484,335.908,117.392L335.908,117.392z M71.259,348.343   c-2.082-1.812-5.239-1.593-7.051,0.488l-45.054,51.711l0.005,0.005c-1.552,1.78-1.664,4.467-0.142,6.382l41.816,52.504   l27.797,39.141c0.875,1.453,2.467,2.426,4.287,2.426h94.842v-0.003c1.395-0.001,2.782-0.582,3.77-1.716l19.576-22.474   c1.812-2.082,1.593-5.239-0.488-7.051l-15.89-13.844c5.84-2.872,13.095-5.493,19.057-4.916l0-0.002   c27.611,2.842,42.471,6.954,59.111,11.513c31.066,8.511,49.234,13.488,91.11-12.341l110.459-68.134l-0.001-0.002   c0.079-0.049,0.158-0.1,0.235-0.155c15.337-10.722,23.519-30.156,17.244-44.773c-5.414-12.611-18.861-15.36-33.262-9.547   l0.003,0.007c-0.126,0.05-0.251,0.107-0.374,0.168l-129.624,64.906c0.19-16.874-5.388-33.234-20.79-41.039l-75.192-38.095   c-13.938-7.061-29.842-5.629-42.29,3.786l-82.859,62.672L71.259,348.343L71.259,348.343z M115.245,386.666l71.423,62.226   c8.676-4.782,18.744-8.718,28.054-7.817l0,0.002c26.747,2.495,45.402,7.606,60.791,11.822   c28.438,7.791,45.069,12.347,83.258-11.208l110.353-68.068c10.814-7.134,18.044-22.35,13.639-32.612   c-0.91-2.119-2.321-3.841-4.208-4.946c-3.493-2.044-8.841-2.185-16.064,0.71l-136.767,68.483c-0.071,0.043-0.143,0.085-0.216,0.125   c-12.877,7.845-39.1-1.01-55.578-6.575c-4.806-1.623-8.703-2.94-10.755-3.337c-2.707-0.518-4.482-3.132-3.965-5.84   c0.518-2.707,3.132-4.482,5.84-3.965c2.635,0.51,6.847,1.933,12.044,3.689c13.853,4.679,35.403,11.956,45.345,8.397   c1.259-14.681-1.735-30.506-15.037-37.245l-75.192-38.095c-10.577-5.359-22.311-4.315-31.782,2.849L115.245,386.666   L115.245,386.666z M200.284,474.012L68.463,359.164l-39.041,44.809l39.257,49.292l-0.003,0.002c0.055,0.069,0.108,0.14,0.16,0.212   L95.482,491h90.005L200.284,474.012L200.284,474.012z M271.626,144.924c-8.801-8.801-23.919-2.541-23.919,9.908   c0,12.46,15.13,18.696,23.919,9.908C277.097,159.268,277.097,150.394,271.626,144.924L271.626,144.924z M370.21,56.574   c-6.288-2.607-12.839-4.729-19.603-6.316c-4.962-1.164-8.476-5.586-8.476-10.678V21.973c0-0.264-0.11-0.507-0.288-0.685l0.01-0.01   C341.676,21.106,341.43,21,341.158,21h-39.805c-0.563,0-0.973,0.461-0.973,0.973v17.608c0,2.554-0.87,4.928-2.373,6.825   l-0.01-0.008c-1.504,1.894-3.614,3.279-6.093,3.861c-13.484,3.164-26.328,8.511-37.993,15.743   c-4.372,2.71-9.913,2.055-13.524-1.556l-12.461-12.462c-0.361-0.361-0.993-0.389-1.377,0l-28.147,28.147l-0.01-0.01   c-0.356,0.367-0.368,1.009,0.01,1.387l12.46,12.46l-0.01,0.01c3.629,3.635,4.276,9.143,1.565,13.514   c-7.229,11.658-12.583,24.517-15.744,37.994c-1.165,4.964-5.565,8.476-10.678,8.476h-17.605c-0.529,0-0.973,0.444-0.973,0.973   v39.805c0,0.265,0.11,0.508,0.288,0.685l-0.01,0.01l0.695,0.278h17.601c5.107,0,9.505,3.479,10.678,8.476   c3.162,13.476,8.515,26.34,15.745,37.998c2.71,4.371,2.055,9.913-1.555,13.523l-12.457,12.457c-0.373,0.373-0.373,1.004,0,1.377   l28.147,28.147l-0.01,0.01c0.367,0.356,1.009,0.368,1.387-0.01l12.462-12.462c3.611-3.611,9.152-4.267,13.523-1.556   c11.648,7.225,24.526,12.584,37.992,15.743c2.497,0.586,4.609,1.969,6.103,3.853l-0.01,0.008c1.505,1.859,2.383,4.308,2.383,6.818   v17.607c0,0.576,0.47,0.973,0.973,0.973h39.805c0.265,0,0.508-0.111,0.685-0.288l0.01,0.01l0.278-0.695V310.1   c0-5.098,3.497-9.509,8.476-10.678c13.476-3.163,26.34-8.514,37.998-15.744c4.355-2.701,9.913-2.055,13.523,1.555l12.457,12.457   c0.361,0.361,0.993,0.389,1.377,0l28.147-28.147l0.01,0.01c0.356-0.367,0.368-1.009-0.01-1.386l-12.462-12.462l0.01-0.01   c-3.611-3.508-4.27-9.152-1.565-13.514c7.229-11.657,12.581-24.517,15.743-37.993c1.165-4.964,5.564-8.476,10.678-8.476h17.607   c0.576,0,0.973-0.471,0.973-0.973v-39.805c0-0.529-0.444-0.973-0.973-0.973h-17.601c-5.107,0-9.505-3.48-10.678-8.476   c-3.162-13.475-8.515-26.342-15.744-37.998c-2.711-4.371-2.056-9.913,1.555-13.524l12.457-12.457l0.01,0.01   c0.362-0.372,0.364-1.013-0.01-1.387l-28.146-28.147l0.01-0.01c-0.367-0.355-1.009-0.368-1.387,0.01l-12.462,12.463   c-3.611,3.611-9.152,4.266-13.524,1.555C382.798,62.405,376.651,59.245,370.21,56.574z"/></g></svg>